<svg width="128" height="128" xmlns:xlink="http://www.w3.org/1999/xlink" xmlns="http://www.w3.org/2000/svg"><defs><linearGradient id="e" gradientUnits="userSpaceOnUse" x1="62.816" y1="414.077" x2="158.563" y2="414.077" gradientTransform="translate(-42.443 -294.181)"><stop offset="0" style="stop-color:#fbf3aa;stop-opacity:1"/><stop offset=".063" style="stop-color:#fcf5b4;stop-opacity:1"/><stop offset=".156" style="stop-color:#f5e111;stop-opacity:1"/><stop offset=".289" style="stop-color:#b1a208;stop-opacity:1"/><stop offset=".367" style="stop-color:#2c9387;stop-opacity:1"/><stop offset=".653" style="stop-color:#6ed2ca;stop-opacity:1"/><stop offset=".852" style="stop-color:#2dc0af;stop-opacity:.960784"/><stop offset=".958" style="stop-color:#a2e9e1;stop-opacity:.960784"/><stop offset="1" style="stop-color:#249d8f;stop-opacity:.960784"/></linearGradient><linearGradient id="f" gradientUnits="userSpaceOnUse" x1="32" y1="239.25" x2="56" y2="196" gradientTransform="translate(0 -172)"><stop offset="0" style="stop-color:#c061cb;stop-opacity:1"/><stop offset="1" style="stop-color:#8f58c8;stop-opacity:1"/></linearGradient><linearGradient id="g" gradientUnits="userSpaceOnUse" x1="64" y1="260" x2="80" y2="220" gradientTransform="translate(0 -172)"><stop offset="0" style="stop-color:#2dc0af;stop-opacity:1"/><stop offset="1" style="stop-color:#3584e4;stop-opacity:1"/></linearGradient><linearGradient id="c" gradientUnits="userSpaceOnUse" x1="56" y1="252" x2="0" y2="244" gradientTransform="translate(8 -156)"><stop offset="0" style="stop-color:#fff;stop-opacity:1"/><stop offset="1" style="stop-color:#fff;stop-opacity:0"/></linearGradient><linearGradient id="j" gradientUnits="userSpaceOnUse" x1="529.288" y1="441.731" x2="543.341" y2="408.599" gradientTransform="rotate(-120 214.055 373.416)"><stop offset="0" style="stop-color:#2dc0af;stop-opacity:1"/><stop offset="1" style="stop-color:#5ed9cb;stop-opacity:1"/></linearGradient><linearGradient id="k" gradientUnits="userSpaceOnUse" x1="529.288" y1="441.731" x2="543.341" y2="408.599" gradientTransform="translate(-504 -330)"><stop offset="0" style="stop-color:#f9f06b;stop-opacity:1"/><stop offset="1" style="stop-color:#f6d32d;stop-opacity:1"/></linearGradient><filter id="a" filterUnits="objectBoundingBox" x="0" y="0" width="1" height="1"><feColorMatrix in="SourceGraphic" values="0 0 0 0 1 0 0 0 0 1 0 0 0 0 1 0 0 0 1 0"/></filter><filter style="color-interpolation-filters:sRGB" id="d" x="0" y="0" width="1" height="1"><feColorMatrix type="hueRotate" values="308" result="color1"/><feColorMatrix type="saturate" values="1" result="color2"/></filter><clipPath id="b"><path d="M0 0h192v152H0z"/></clipPath><mask id="i"><g filter="url(#a)"><path style="fill:#000;fill-opacity:.2;stroke:none" d="M0 0h128v128H0z"/></g></mask><g id="h" clip-path="url(#b)"><path style="fill:url(#c);fill-rule:evenodd;stroke:none" d="M28.016 42.629c-.04 12.11-.004 24.215-.016 36.32v36.949c0 5.72 3.05 11 8 13.86a16.013 16.013 0 0 0 16 0l32-18.477a16.004 16.004 0 0 0 0-27.715L52 65.094a15.843 15.843 0 0 0-1.176-.602c-5.39-3.14-10.851-6.168-16.168-9.43-3.98-2.828-6.484-7.558-6.64-12.433Zm0 0"/></g></defs><g style="filter:url(#d)"><path style="fill:url(#e);fill-rule:evenodd;stroke:none" d="M36.379 14.008a16.012 16.012 0 0 0-11.559 4.547A16.002 16.002 0 0 0 20 30v16.977c0 6.656.008 13.316 0 19.972v16.489c0 6.82.008 13.64 0 20.46a14.54 14.54 0 0 0 .715 4.723l.012.043a15.98 15.98 0 0 0 .945 2.309c.016.039.035.074.055.113.074.164.152.324.234.488a16.072 16.072 0 0 0 1.805 2.637 16.025 16.025 0 0 0 3.89 3.324c.387.238.785.465 1.192.672a14.777 14.777 0 0 0 5.62 1.606c.06.004.122.015.184.019.246.02.493.031.739.04.355.019.71.03 1.066.023.027-.004.05-.004.078-.008.45-.016.899-.047 1.344-.106A16.05 16.05 0 0 0 44 117.758l.266-.153c.59-.316 1.172-.648 1.734-1.003h.004L76 99.282l32-18.477a16.002 16.002 0 0 0 7.969-14.801c-.094-2.031-.574-4.043-1.496-5.906-.676-1.54-1.637-2.875-2.774-4.059a5.37 5.37 0 0 1-.148-.152 16.137 16.137 0 0 0-1.488-1.352c-.172-.14-.348-.277-.524-.414a26.313 26.313 0 0 0-3.54-2.238c-.081-.031-.163-.059-.245-.09L44 16.145a15.986 15.986 0 0 0-7.621-2.137zm0 0"/><path style="fill:#2bbfae;fill-opacity:1;fill-rule:evenodd;stroke:none" d="M36.375 46.953A16.002 16.002 0 0 0 20 62.95V99.9c0 5.718 3.05 11 8 13.859a16.013 16.013 0 0 0 16 0L76 95.28a16.004 16.004 0 0 0 0-27.715L44 49.094a16.037 16.037 0 0 0-7.625-2.14zm0 0"/><path style="fill:url(#f);fill-rule:evenodd;stroke:none" d="M36.375 10.004A16.002 16.002 0 0 0 20 26v73.898h32V53.711l40 23.094 16-27.711-64-36.95a16.037 16.037 0 0 0-7.625-2.14zm0 0"/><path style="fill:url(#g);fill-rule:evenodd;stroke:none" d="M68.375 28.48a15.997 15.997 0 0 0-11.555 4.551A15.993 15.993 0 0 0 52 44.473v36.953c0 5.715 3.05 10.996 8 13.855a16.013 16.013 0 0 0 16 0l32-18.476c4.95-2.856 8-8.137 8-13.856 0-5.715-3.05-10.996-8-13.855L76 30.617a15.989 15.989 0 0 0-7.625-2.137zm0 0"/><use xlink:href="#h" transform="translate(-8 -16)" mask="url(#i)"/><path style="fill:url(#j);fill-rule:evenodd;stroke:none" d="M75.613 95.43C86.426 89.238 97.203 82.973 108 76.754c7.047-3.899 10.059-13.434 6.473-20.656-1.641-3.743-4.938-6.352-8.473-8.215-8.54-3.352-19.516 1.812-21.504 11.11-.578 1.25-.508 2.558-.496 3.956-.047 6.672.098 13.352-.082 20.02-.488 5.195-3.7 10.008-8.305 12.46zm0 0"/><path style="fill:url(#k);fill-rule:evenodd;stroke:none" d="M20.02 62.516c-.047 12.46-.008 24.922-.02 37.382-.148 8.055 6.602 15.43 14.652 15.934 4.063.453 7.97-1.098 11.348-3.23 7.176-5.72 8.191-17.805 1.133-24.172-.793-1.133-1.965-1.723-3.18-2.414-5.754-3.375-11.61-6.59-17.297-10.079-4.25-3.023-6.816-8.207-6.636-13.421zm0 0"/></g></svg>